# xmcd
#
# Track frame offsets:
# 183
# 20695
# 33425
# 42270
# 53783
# 60708
# 75270
# 89675
# 103070
# 117225
# 139870
# 153470
# 161508
# 172170
# 183295
#
# Disc length: 2594 seconds
#
#
# Revision: 3
# Processed by: cddbd v1.5.2PL0 Copyright (c) Steve Scherf et al.
# Submitted via: FreeRIP 2.945 
#
DISCID=c60a200f
DTITLE=Various Artist - Spirituals Anthology [CD2]
DYEAR=1993
DGENRE=Gospel
TTITLE0=Aretha Franklin - The Day Is Past And Gone
TTITLE1=Paul Robeson - Swing Low Sweet Chariot
TTITLE2=Paul Robeson - Joshua Fit De Battle Ob Jericho
TTITLE3=Paul Robeson - Ol' Man River
TTITLE4=Paul Robeson - Didn't My Lord Deliver Daniel
TTITLE5=Paul Robeson - Jacob's Ladder
TTITLE6=Shirley Verrett - I'm A Poor Little Orphan In This World!
TTITLE7=Shirley Verrett - Roll Jord'n Roll
TTITLE8=Shirley Verrett - Hold On!
TTITLE9=Shirley Verrett - O Glory
TTITLE10=Mississippi Singers - Daniel Saw The Stone
TTITLE11=Mississippi Singers - Yes Indeed
TTITLE12=Mississippi Singers - Talk About Jesus
TTITLE13=Mississippi Singers - Walk Around
TTITLE14=Mississippi Singers - He'll Never Let Go Your Hand
EXTD=
EXTT0=
EXTT1=
EXTT2=
EXTT3=
EXTT4=
EXTT5=
EXTT6=
EXTT7=
EXTT8=
EXTT9=
EXTT10=
EXTT11=
EXTT12=
EXTT13=
EXTT14=
PLAYORDER=
